<?xml version="1.0" encoding="UTF-8"?>
<svg width="1440px" height="800px" viewBox="0 0 1440 800" version="1.1" xmlns="http://www.w3.org/2000/svg" xmlns:xlink="http://www.w3.org/1999/xlink">
    <defs>
        <rect id="path-1" x="0" y="0" width="1440" height="800"></rect>
    </defs>
    <g id="Mesh-Background" stroke="none" stroke-width="1" fill="none" fill-rule="evenodd">
        <g id="Mesh">
            <rect id="Background" fill="#FFFFFF" x="0" y="0" width="1440" height="800"></rect>
            <g id="Grid">
                <use fill="#FFFFFF" fill-rule="evenodd" xlink:href="#path-1"></use>
                <rect stroke="#E0E0E0" stroke-width="1" x="0.5" y="0.5" width="1439" height="799"></rect>
            </g>
            <g id="Lines" transform="translate(0.000000, 40.000000)" stroke="#E0E0E0" stroke-linecap="square" stroke-width="1">
                <path d="M0,0 C120,160 240,240 360,240 C480,240 600,160 720,160 C840,160 960,240 1080,240 C1200,240 1320,160 1440,0" id="Line-1"></path>
                <path d="M0,160 C120,320 240,400 360,400 C480,400 600,320 720,320 C840,320 960,400 1080,400 C1200,400 1320,320 1440,160" id="Line-2"></path>
                <path d="M0,320 C120,480 240,560 360,560 C480,560 600,480 720,480 C840,480 960,560 1080,560 C1200,560 1320,480 1440,320" id="Line-3"></path>
                <path d="M0,480 C120,640 240,720 360,720 C480,720 600,640 720,640 C840,640 960,720 1080,720 C1200,720 1320,640 1440,480" id="Line-4"></path>
            </g>
        </g>
    </g>
</svg>
